<svg width="71" height="56" viewBox="0 0 71 56" fill="none" xmlns="http://www.w3.org/2000/svg">
<path d="M18.3499 18.274C17.4414 16.6926 16.5666 15.0775 15.6245 13.5298C14.5478 11.6792 13.101 11.1073 11.6205 11.9484C10.1737 12.7559 9.66901 14.5056 10.8803 16.1206C13.101 19.0479 13.3029 21.6387 11.0822 24.7678C9.50079 27.0221 9.8036 27.2577 11.8897 29.1083C13.8412 30.8579 15.7927 32.6412 17.8115 34.3571C19.2583 35.6021 19.6285 37.0489 18.9892 38.8658C17.2732 43.6773 15.6581 48.4888 13.9758 53.3002C13.2019 55.4873 11.4523 56.463 9.56809 55.7901C7.71751 55.1508 6.97729 53.2666 7.71751 51.0796C9.02974 47.2102 10.3419 43.3408 11.7215 39.5051C12.0579 38.563 11.8897 37.991 11.1495 37.3517C8.49139 35.0637 5.93423 32.5739 3.20884 30.3532C0.954513 28.5362 0.517106 26.3156 1.19004 23.7248C2.46862 18.8124 4.8239 14.4383 8.45775 10.8717C9.5008 9.82867 11.0485 9.08843 12.4954 8.71832C15.2544 8.04539 17.1386 9.52585 17.6433 12.3185C17.9798 14.27 18.3162 16.2216 18.6527 18.1731C18.5518 18.2067 18.4508 18.2404 18.3499 18.274Z" fill="white"/>
<path d="M23.0941 5.05084C24.5073 6.69953 25.9204 8.34822 27.3672 10.0306C25.6512 12.2849 22.3202 12.7223 19.6958 10.9054C17.0377 9.08844 16.3648 5.38731 18.148 2.69557C19.8977 0.037478 23.4306 -0.80369 26.156 0.845C26.7279 1.18147 27.4345 1.58522 27.6701 2.12357C28.6122 4.34426 30.4627 5.69013 32.0778 7.23788C32.3133 7.47341 32.5825 7.74257 32.6834 8.04539C32.818 8.55009 33.0872 9.25667 32.8517 9.55949C32.6161 9.86231 31.8422 9.9969 31.3712 9.89596C28.4439 9.22302 26.055 7.64163 24.0698 5.35365C23.868 5.11812 23.6997 4.8826 23.5315 4.64708C23.3633 4.81531 23.2287 4.9499 23.0941 5.05084Z" fill="white"/>
<path d="M18.5854 19.9564C20.9407 19.2834 23.195 18.6105 25.4494 17.9712C27.1317 17.5001 28.2757 17.9376 28.6794 19.1825C29.1169 20.562 28.4439 21.5377 26.6943 22.0761C24.0025 22.8836 21.3108 23.5902 18.6527 24.4314C17.2732 24.8688 16.2638 24.5323 15.5572 23.2537C14.1777 20.7639 12.7309 18.3077 11.3514 15.7841C10.5439 14.3037 10.7794 13.0588 12.0243 12.4868C13.4375 11.8138 14.3459 12.4531 15.0525 13.6644C16.1965 15.7169 17.3741 17.803 18.5854 19.9564Z" fill="white"/>
<path d="M15.4563 25.1043C17.0377 24.9361 18.3835 24.936 19.6285 24.6332C20.7388 24.3641 21.58 24.3977 22.3202 25.2389C22.5221 25.4408 22.7576 25.5753 22.9595 25.7772C24.7428 27.3923 26.526 28.9737 29.2851 27.224C29.6552 28.8054 29.958 30.084 30.3281 31.5645C26.6943 32.4056 23.0941 33.2468 19.3593 34.1216C19.0228 32.7757 18.72 31.4972 18.4172 30.1177C19.0901 29.8821 19.6621 29.6466 20.4696 29.3438C18.72 27.8633 17.0713 26.4502 15.4563 25.1043Z" fill="white"/>
<path d="M36.3172 50.0029C32.5488 50.0029 28.9486 50.0029 25.2138 50.0029C25.2138 48.6234 25.2138 47.3111 25.2138 45.898C28.9149 45.898 32.5488 45.898 36.3172 45.898C36.3172 47.2438 36.3172 48.5561 36.3172 50.0029Z" fill="white"/>
<path d="M38.4034 34.559C42.1718 34.559 45.772 34.559 49.4731 34.559C49.4731 35.9722 49.4731 37.2844 49.4731 38.6639C45.772 38.6639 42.1718 38.6639 38.4034 38.6639C38.4034 37.3517 38.4034 36.0058 38.4034 34.559Z" fill="white"/>
<path d="M49.5068 45.8643C49.5068 47.2775 49.5068 48.5224 49.5068 49.9692C45.8393 49.9692 42.1718 49.9692 38.4034 49.9692C38.4034 48.657 38.4034 47.3111 38.4034 45.8643C42.0372 45.8643 45.6711 45.8643 49.5068 45.8643Z" fill="white"/>
<path d="M51.5929 45.8643C55.294 45.8643 58.9279 45.8643 62.629 45.8643C62.629 47.2438 62.629 48.5561 62.629 49.9692C58.9615 49.9692 55.3613 49.9692 51.5929 49.9692C51.5929 48.657 51.5929 47.3448 51.5929 45.8643Z" fill="white"/>
<path d="M70.0986 40.279C70.0986 41.6921 70.0986 42.9707 70.0986 44.3166C66.3974 44.3166 62.7973 44.3166 59.0625 44.3166C59.0625 43.038 59.0625 41.7258 59.0625 40.279C62.6627 40.279 66.2965 40.279 70.0986 40.279Z" fill="white"/>
<path d="M45.8393 44.2829C45.8393 42.9034 45.8393 41.6248 45.8393 40.2453C49.5741 40.2453 53.2079 40.2453 56.9427 40.2453C56.9427 41.5912 56.9427 42.8698 56.9427 44.2829C53.2416 44.2829 49.5741 44.2829 45.8393 44.2829Z" fill="white"/>
<path d="M32.7171 44.2829C32.7171 42.8698 32.7171 41.6248 32.7171 40.2453C36.3846 40.2453 40.0184 40.2453 43.7532 40.2453C43.7532 41.5576 43.7532 42.8698 43.7532 44.2829C40.153 44.2829 36.5192 44.2829 32.7171 44.2829Z" fill="white"/>
<path d="M51.5256 38.6303C51.5256 37.2508 51.5256 35.9385 51.5256 34.559C55.2604 34.559 58.8606 34.559 62.5954 34.559C62.5954 35.9049 62.5954 37.2171 62.5954 38.6303C58.9279 38.6303 55.2604 38.6303 51.5256 38.6303Z" fill="white"/>
<path d="M29.6552 27.5605C30.3618 25.7099 30.4964 24.465 28.814 23.3883C27.771 22.6817 28.5785 21.6723 29.2851 21.0331C29.8234 21.9415 30.3618 22.8163 30.9338 23.7584C31.7749 23.1191 32.3469 22.6481 33.1881 22.0088C35.0387 23.994 36.9229 25.9791 38.7062 27.9979C39.009 28.3344 38.9753 29.0073 39.0763 29.512C38.5716 29.613 37.9996 29.9158 37.5285 29.8148C34.9714 29.1419 32.4479 28.368 29.6552 27.5605Z" fill="white"/>
<path d="M19.5948 55.6219C19.5948 54.3097 19.5948 53.0311 19.5948 51.6179C23.2287 51.6179 26.8962 51.6179 30.6646 51.6179C30.6646 52.9301 30.6646 54.2087 30.6646 55.6219C26.9635 55.6219 23.3296 55.6219 19.5948 55.6219Z" fill="white"/>
<path d="M58.9951 51.5506C62.6963 51.5506 66.3301 51.5506 70.0649 51.5506C70.0649 52.8965 70.0649 54.2087 70.0649 55.6219C66.3974 55.6219 62.7636 55.6219 58.9951 55.6219C58.9951 54.276 58.9951 53.0311 58.9951 51.5506Z" fill="white"/>
<path d="M32.7171 55.6219C32.7171 54.2087 32.7171 52.9638 32.7171 51.5843C36.4182 51.5843 40.0521 51.5843 43.7869 51.5843C43.7869 52.9302 43.7869 54.2087 43.7869 55.6219C40.1194 55.6219 36.5192 55.6219 32.7171 55.6219Z" fill="white"/>
<path d="M56.9427 55.6219C53.2415 55.6219 49.6413 55.6219 45.9066 55.6219C45.9066 54.3097 45.9066 52.9975 45.9066 51.5843C49.5404 51.5843 53.2079 51.5843 56.9427 51.5843C56.9427 52.9302 56.9427 54.2087 56.9427 55.6219Z" fill="white"/>
<path d="M56.9427 28.9737C56.9427 30.3195 56.9427 31.5645 56.9427 32.944C53.2416 32.944 49.5741 32.944 45.8393 32.944C45.8393 31.5981 45.8393 30.3532 45.8393 28.9737C49.5404 28.9737 53.1406 28.9737 56.9427 28.9737Z" fill="white"/>
<path d="M58.9951 32.9776C58.9951 31.5645 58.9951 30.3195 58.9951 28.9737C62.6963 28.9737 66.2965 28.9737 70.0313 28.9737C70.0313 30.3195 70.0313 31.5981 70.0313 32.9776C66.3974 32.9776 62.7636 32.9776 58.9951 32.9776Z" fill="white"/>
<path d="M70.0649 34.559C70.0649 35.9385 70.0649 37.2171 70.0649 38.6303C68.2817 38.6303 66.532 38.6303 64.6815 38.6303C64.6815 37.2844 64.6815 35.9722 64.6815 34.559C66.4647 34.559 68.2144 34.559 70.0649 34.559Z" fill="white"/>
<path d="M64.6478 50.0029C64.6478 48.5561 64.6478 47.3111 64.6478 45.898C66.4648 45.898 68.2144 45.898 70.0986 45.898C70.0986 47.2775 70.0986 48.5897 70.0986 50.0029C68.2817 50.0029 66.5657 50.0029 64.6478 50.0029Z" fill="white"/>
</svg>
