<svg width="24" height="28" viewBox="0 0 24 28" fill="none" xmlns="http://www.w3.org/2000/svg">
<path d="M23.6668 4.59664L12.0002 0.513306L0.333496 4.59664V14C0.333496 18.8148 3.28983 22.1806 6.0455 24.2701C7.70926 25.519 9.53409 26.5374 11.4705 27.2976C11.6027 27.3474 11.7357 27.3949 11.8695 27.44L12.0002 27.4866L12.1332 27.44C12.3883 27.3514 12.6411 27.2564 12.8915 27.1553C14.6949 26.4123 16.3963 25.4428 17.9548 24.2701C20.7117 22.1806 23.6668 18.8148 23.6668 14V4.59664ZM10.8347 17.9841L5.88683 13.034L7.5365 11.3831L10.8358 14.6836L17.4357 8.08381L19.0865 9.73347L10.8347 17.9841Z" fill="#FFA500"/>
</svg>
