<svg width="20" height="25" viewBox="0 0 20 25" fill="none" xmlns="http://www.w3.org/2000/svg">
<path d="M9.99984 13.1667C9.02761 13.1667 8.20123 12.8264 7.52067 12.1459C6.84011 11.4653 6.49984 10.6389 6.49984 9.66671C6.49984 8.69449 6.84011 7.8681 7.52067 7.18754C8.20123 6.50699 9.02761 6.16671 9.99984 6.16671C10.9721 6.16671 11.7984 6.50699 12.479 7.18754C13.1596 7.8681 13.4998 8.69449 13.4998 9.66671C13.4998 10.6389 13.1596 11.4653 12.479 12.1459C11.7984 12.8264 10.9721 13.1667 9.99984 13.1667ZM9.99984 22.5L4.54567 24.3084C4.15678 24.4445 3.80173 24.3959 3.4805 24.1625C3.15928 23.9292 2.99906 23.6181 2.99984 23.2292V15.8209C2.26095 15.0042 1.68734 14.0709 1.279 13.0209C0.870671 11.9709 0.666504 10.8528 0.666504 9.66671C0.666504 7.06115 1.57067 4.85421 3.379 3.04587C5.18734 1.23754 7.39428 0.333374 9.99984 0.333374C12.6054 0.333374 14.8123 1.23754 16.6207 3.04587C18.429 4.85421 19.3332 7.06115 19.3332 9.66671C19.3332 10.8528 19.129 11.9709 18.7207 13.0209C18.3123 14.0709 17.7387 15.0042 16.9998 15.8209V23.2292C16.9998 23.6181 16.8392 23.9292 16.518 24.1625C16.1968 24.3959 15.8421 24.4445 15.454 24.3084L9.99984 22.5ZM9.99984 16.6667C11.9443 16.6667 13.5971 15.9862 14.9582 14.625C16.3193 13.2639 16.9998 11.6112 16.9998 9.66671C16.9998 7.72226 16.3193 6.06949 14.9582 4.70837C13.5971 3.34726 11.9443 2.66671 9.99984 2.66671C8.05539 2.66671 6.40261 3.34726 5.0415 4.70837C3.68039 6.06949 2.99984 7.72226 2.99984 9.66671C2.99984 11.6112 3.68039 13.2639 5.0415 14.625C6.40261 15.9862 8.05539 16.6667 9.99984 16.6667Z" fill="#2B7DA0"/>
</svg>
