<svg width="21" height="21" viewBox="0 0 21 21" fill="none" xmlns="http://www.w3.org/2000/svg">
<path fill-rule="evenodd" clip-rule="evenodd" d="M15.552 20.633C14.112 20.58 10.031 20.016 5.757 15.743C1.484 11.469 0.921 7.38897 0.867 5.94797C0.787 3.75197 2.469 1.61897 4.412 0.785971C4.64598 0.684938 4.9022 0.646472 5.15553 0.674347C5.40886 0.702222 5.65059 0.79548 5.857 0.944971C7.457 2.11097 8.561 3.87497 9.509 5.26197C9.71758 5.5667 9.80677 5.93752 9.75956 6.30377C9.71235 6.67002 9.53204 7.0061 9.253 7.24797L7.302 8.69697C7.20774 8.76504 7.14139 8.865 7.11528 8.97829C7.08916 9.09159 7.10505 9.21051 7.16 9.31297C7.602 10.116 8.388 11.312 9.288 12.212C10.188 13.112 11.441 13.95 12.3 14.442C12.4077 14.5024 12.5345 14.5193 12.6543 14.4892C12.774 14.4591 12.8777 14.3842 12.944 14.28L14.214 12.347C14.4475 12.0368 14.7919 11.829 15.1752 11.7672C15.5584 11.7053 15.9508 11.7941 16.27 12.015C17.677 12.989 19.319 14.074 20.521 15.613C20.6826 15.8209 20.7854 16.0684 20.8187 16.3296C20.8519 16.5908 20.8144 16.8562 20.71 17.098C19.873 19.051 17.755 20.714 15.552 20.633Z" fill="#79B9D5"/>
</svg>
