<svg width="72" height="56" viewBox="0 0 72 56" fill="none" xmlns="http://www.w3.org/2000/svg">
<g clip-path="url(#clip0_14_222)">
<path fill-rule="evenodd" clip-rule="evenodd" d="M36 0L37.8593 4.54291L42.7588 4.90541L39.0169 8.08018L40.1862 12.8453L36.0175 10.261L31.8313 12.8628L33.0006 8.09772L29.247 4.90541L34.1407 4.54291L36 0ZM32.1996 27.1055C35.0065 26.3535 37.9734 26.4507 40.725 27.3848C43.4767 28.3189 45.8896 30.048 47.6586 32.3535C49.4275 34.6589 50.4732 37.4371 50.6632 40.3367C50.8533 43.2364 50.1793 46.1273 48.7264 48.6439C47.2735 51.1606 45.107 53.1898 42.5008 54.4752C39.8946 55.7605 36.9658 56.2442 34.0848 55.865C31.2037 55.4859 28.4998 54.2609 26.3149 52.3451C24.13 50.4292 22.5623 47.9085 21.81 45.1017C21.3104 43.2378 21.1829 41.2938 21.4346 39.3807C21.6864 37.4676 22.3126 35.6228 23.2773 33.9516C24.2421 32.2805 25.5266 30.8158 27.0575 29.6411C28.5884 28.4664 30.3357 27.6048 32.1996 27.1055ZM16.0276 34.981C15.895 35.3756 15.6111 35.7014 15.2382 35.8868C14.8654 36.0721 14.4343 36.1017 14.0397 35.9691C13.645 35.8365 13.3192 35.5526 13.1339 35.1798C12.9486 34.807 12.919 34.3758 13.0516 33.9812C14.6696 29.1809 17.7523 25.0089 21.8656 22.0523C25.979 19.0957 30.9159 17.5034 35.9816 17.4995C41.0472 17.4956 45.9866 19.0804 50.1044 22.0307C54.2223 24.981 57.3113 29.1483 58.9367 33.9461C59.0526 34.3359 59.013 34.7553 58.8262 35.1165C58.6395 35.4776 58.3202 35.7525 57.9353 35.8833C57.5503 36.0142 57.1296 35.9908 56.7615 35.8182C56.3934 35.6457 56.1064 35.3372 55.9607 34.9576C54.5486 30.7818 51.8627 27.1539 48.2811 24.5843C44.6994 22.0146 40.4022 20.6325 35.9941 20.6325C31.586 20.6325 27.2889 22.0146 23.7072 24.5843C20.1256 27.1539 17.4397 30.7818 16.0276 34.9576V34.981ZM32.2347 34.3262C33.2637 34.3262 34.0998 35.5306 34.0998 37.0215C34.0998 38.5124 33.2813 39.7169 32.2347 39.7169C31.1881 39.7169 30.3754 38.5066 30.3754 37.0215C30.3754 35.5364 31.2057 34.3262 32.2347 34.3262ZM28.0718 43.5406C28.6716 44.3158 29.3852 44.9959 30.1883 45.5577C31.942 46.7652 34.029 47.3947 36.1579 47.3585C38.2408 47.3476 40.2647 46.6648 41.9286 45.4116C42.6202 44.8824 43.2257 44.2493 43.7235 43.5348C43.7332 43.5261 43.7457 43.5214 43.7586 43.5214C43.7715 43.5214 43.784 43.5261 43.7937 43.5348L44.3784 44.1194C44.387 44.1291 44.3918 44.1416 44.3918 44.1545C44.3918 44.1675 44.387 44.18 44.3784 44.1896C43.5433 45.6318 42.3894 46.8638 41.0048 47.7912C39.5826 48.7464 37.9173 49.2759 36.2046 49.3172C34.4645 49.3435 32.7515 48.8839 31.2583 47.99C29.6955 47.0375 28.3699 45.7419 27.3819 44.2013C27.3733 44.1916 27.3685 44.1792 27.3685 44.1662C27.3685 44.1533 27.3733 44.1408 27.3819 44.1311L27.9666 43.5465C27.9772 43.5374 27.9906 43.5324 28.0046 43.5324C28.0185 43.5324 28.032 43.5374 28.0426 43.5465L28.0718 43.5406ZM39.7653 34.3262C40.7943 34.3262 41.6245 35.5306 41.6245 37.0215C41.6245 38.5124 40.7943 39.7169 39.7653 39.7169C38.7363 39.7169 37.9002 38.5066 37.9002 37.0215C37.9002 35.5364 38.7363 34.3262 39.7653 34.3262ZM71.9223 20.6273L68.9171 24.5037L71.0511 28.9296L66.4322 27.2692L62.8833 30.6661L63.0353 25.7607L58.7145 23.422L63.427 22.0539L64.2982 17.2186L67.0578 21.2704L71.9223 20.6156V20.6273ZM56.6623 5.36145L56.0017 10.2259L60.0593 12.9914L55.2299 13.8626L53.8676 18.5751L51.5289 14.2485L46.6177 14.4005L50.0146 10.8574L48.3541 6.23262L52.7743 8.36667L56.6565 5.36145H56.6623ZM0.0776672 20.6273L4.94215 21.288L7.67842 17.2303L8.55543 22.0597L13.2679 23.4337L8.94131 25.7724L9.09333 30.6778L5.5736 27.2633L0.94883 28.9296L3.08289 24.5095L0.0776672 20.6273ZM15.3376 5.36145L19.2199 8.36667L23.64 6.23262L21.9854 10.8515L25.3823 14.4005L20.4711 14.2485L18.1324 18.5751L16.7584 13.8626L11.9231 12.9914L15.9808 10.2259L15.3376 5.36145Z" fill="white"/>
</g>
<defs>
<clipPath id="clip0_14_222">
<rect width="71.8446" height="56" fill="white" transform="translate(0.0776672)"/>
</clipPath>
</defs>
</svg>
