<svg width="20" height="21" viewBox="0 0 20 21" fill="none" xmlns="http://www.w3.org/2000/svg">
<path d="M10 0.5C15.523 0.5 20 4.977 20 10.5C20 16.023 15.523 20.5 10 20.5C4.477 20.5 0 16.023 0 10.5C0 4.977 4.477 0.5 10 0.5ZM10 4.5C9.73478 4.5 9.48043 4.60536 9.29289 4.79289C9.10536 4.98043 9 5.23478 9 5.5V10.5C9.00006 10.7652 9.10545 11.0195 9.293 11.207L12.293 14.207C12.4816 14.3892 12.7342 14.49 12.9964 14.4877C13.2586 14.4854 13.5094 14.3802 13.6948 14.1948C13.8802 14.0094 13.9854 13.7586 13.9877 13.4964C13.99 13.2342 13.8892 12.9816 13.707 12.793L11 10.086V5.5C11 5.23478 10.8946 4.98043 10.7071 4.79289C10.5196 4.60536 10.2652 4.5 10 4.5Z" fill="#79B9D5"/>
</svg>
