<svg width="57" height="56" viewBox="0 0 57 56" fill="none" xmlns="http://www.w3.org/2000/svg">
<path d="M5.16667 44.3333C5.16667 48.3 8.2 51.3333 12.1667 51.3333H44.8333C48.8 51.3333 51.8333 48.3 51.8333 44.3333V25.6667H5.16667V44.3333ZM44.8333 9.33334H40.1667V7.00001C40.1667 5.60001 39.2333 4.66667 37.8333 4.66667C36.4333 4.66667 35.5 5.60001 35.5 7.00001V9.33334H21.5V7.00001C21.5 5.60001 20.5667 4.66667 19.1667 4.66667C17.7667 4.66667 16.8333 5.60001 16.8333 7.00001V9.33334H12.1667C8.2 9.33334 5.16667 12.3667 5.16667 16.3333V21H51.8333V16.3333C51.8333 12.3667 48.8 9.33334 44.8333 9.33334Z" fill="white"/>
</svg>
