<svg width="24" height="28" viewBox="0 0 24 28" fill="none" xmlns="http://www.w3.org/2000/svg">
<path d="M9.63248 4.11676C10.3132 3.82297 11.0627 3.65802 11.8514 3.65802C14.9459 3.65802 17.4545 6.167 17.4545 9.26157C17.4545 12.2022 15.1884 14.609 12.3077 14.842C12.3261 14.7557 12.345 14.6695 12.3734 14.5791C12.7168 13.4898 14.0051 12.7765 14.8035 12.0503C16.8213 10.2156 16.9446 6.92363 14.1705 5.79366C13.0514 5.33789 11.8293 5.235 10.6904 4.8398C10.2842 4.69905 9.88705 4.46926 9.63248 4.11676ZM6.24816 9.2618C6.24816 11.9551 8.14894 14.2023 10.6815 14.7411C10.8559 13.7378 11.398 12.8656 12.1877 12.1535C12.9891 11.4313 14.2705 10.7154 14.5964 9.61732C14.9397 8.45973 14.4827 7.58473 13.3552 7.21817C11.8795 6.73893 9.15683 6.49359 8.20058 5.01671C7.00718 6.04436 6.24816 7.56332 6.24816 9.2618ZM8.40413 1.37787L5.77308 1.85608C5.62658 1.88284 5.48315 1.92669 5.34679 1.98613C4.74064 2.251 4.3061 2.8227 4.21289 3.47776L3.83779 6.12509L2.31564 8.3236C1.84318 9.00604 1.86049 9.9102 2.35914 10.5731L3.96573 12.7109L4.4436 15.3417C4.57541 16.067 5.10475 16.6416 5.79705 16.8431L0.812797 25.02C0.722666 25.1676 0.745156 25.3577 0.866944 25.4804C0.988447 25.6035 1.17867 25.6275 1.32699 25.5387L5.38858 23.1091C5.4355 23.5722 5.50451 24.2501 5.57465 24.928C5.6366 25.531 5.69974 26.1334 5.74894 26.5852C5.7737 26.8122 5.79483 27.0021 5.81048 27.1345C5.83918 27.3727 5.8742 27.6689 6.2087 27.6731C6.21018 27.6731 6.21206 27.6731 6.2136 27.6731C6.3125 27.6731 6.40769 27.6338 6.47813 27.5647C6.53717 27.5067 6.57515 27.4238 6.58739 27.3411C6.71367 26.8873 8.67088 22.2488 10.3181 18.3884L10.9109 18.799C11.3106 19.0759 11.8028 19.185 12.2762 19.1193C12.0386 18.7447 11.7435 18.3956 11.4676 18.0079C10.9706 17.3094 10.6675 16.5212 10.6228 15.6597C10.6215 15.6367 10.624 15.6152 10.6235 15.5921C7.64863 15.0183 5.40082 12.404 5.40082 9.26175C5.40082 7.19596 6.37581 5.36151 7.88634 4.18116C7.8544 3.97271 7.84711 3.74855 7.87234 3.50321M23.1845 25.2883L17.816 16.692L17.9301 16.6712C18.0763 16.6443 18.2198 16.6004 18.3559 16.5409C18.9623 16.2759 19.3965 15.7044 19.4898 15.049L19.8649 12.4019L21.387 10.2034C21.859 9.52092 21.8419 8.61676 21.3435 7.95345L19.737 5.81598L19.259 3.18516C19.1104 2.36874 18.4589 1.74187 17.6371 1.62532L14.9895 1.24954L13.1847 0C12.035 0.880471 10.7351 1.61712 9.89849 2.79976C9.81144 2.92285 9.71436 3.06292 9.63596 3.2101C10.3275 2.95667 11.0716 2.81131 11.8511 2.81131C15.4132 2.81131 18.3014 5.69915 18.3014 9.26152C18.3014 12.6807 15.6388 15.4707 12.2755 15.6905C12.4491 16.8967 13.5271 17.7737 14.0517 18.9527C14.2741 19.4515 14.3708 19.9802 14.3776 20.5155C15.8535 23.8876 17.3229 27.2869 17.4347 27.6714C17.4478 27.7548 17.4869 27.837 17.5458 27.8941C17.6172 27.9629 17.7126 28.001 17.8117 28C17.8131 28 17.815 28 17.8166 28C18.1512 27.9922 18.183 27.6953 18.2089 27.4571C18.2235 27.3242 18.2422 27.1346 18.265 26.907C18.3091 26.4548 18.3656 25.8511 18.4213 25.2477C18.4841 24.5694 18.5453 23.8905 18.5875 23.4273L22.6754 25.8125C22.8246 25.8998 23.0143 25.8736 23.1345 25.7499C23.2555 25.6256 23.276 25.4351 23.1845 25.2883Z" fill="#008000"/>
</svg>
